<mxfile host="65bd71144e">
    <diagram id="NGvOHPsZ8LB4_P4hLp1Q" name="ページ1">
        <mxGraphModel dx="1398" dy="399" grid="1" gridSize="10" guides="1" tooltips="1" connect="1" arrows="1" fold="1" page="1" pageScale="1" pageWidth="827" pageHeight="1169" background="#ffffff" math="0" shadow="0">
            <root>
                <mxCell id="0"/>
                <mxCell id="1" parent="0"/>
                <mxCell id="2" value="&lt;font color=&quot;#000000&quot;&gt;ルーム画面&lt;/font&gt;" style="shape=umlBoundary;whiteSpace=wrap;html=1;fillColor=#1ba1e2;strokeColor=#006EAF;fontColor=#ffffff;" parent="1" vertex="1">
                    <mxGeometry x="220" y="240" width="100" height="80" as="geometry"/>
                </mxCell>
                <mxCell id="4" value="ユーザ" style="shape=umlActor;verticalLabelPosition=bottom;verticalAlign=top;html=1;outlineConnect=0;fontColor=#000000;strokeColor=#030303;fillColor=#F7F7F7;" parent="1" vertex="1">
                    <mxGeometry x="70" y="250" width="30" height="60" as="geometry"/>
                </mxCell>
                <mxCell id="5" value="ストップボタンを押す" style="ellipse;shape=umlControl;whiteSpace=wrap;html=1;fontColor=#000000;strokeColor=#030303;fillColor=#F7F7F7;" parent="1" vertex="1">
                    <mxGeometry x="379" y="230" width="70" height="80" as="geometry"/>
                </mxCell>
                <mxCell id="6" value="&lt;span style=&quot;background-color: rgb(255 , 255 , 255)&quot;&gt;ルームに入室する&lt;/span&gt;" style="html=1;verticalAlign=bottom;endArrow=block;fontColor=#000000;strokeColor=#000000;" parent="1" target="2" edge="1">
                    <mxGeometry width="80" relative="1" as="geometry">
                        <mxPoint x="100" y="280" as="sourcePoint"/>
                        <mxPoint x="180" y="280" as="targetPoint"/>
                        <mxPoint as="offset"/>
                    </mxGeometry>
                </mxCell>
                <mxCell id="7" value="" style="html=1;verticalAlign=bottom;endArrow=block;labelBackgroundColor=#FFFFFF;fontColor=#000000;strokeColor=#000000;entryX=-0.02;entryY=0.63;entryDx=0;entryDy=0;entryPerimeter=0;exitX=1.002;exitY=0.51;exitDx=0;exitDy=0;exitPerimeter=0;" parent="1" source="2" target="5" edge="1">
                    <mxGeometry width="80" relative="1" as="geometry">
                        <mxPoint x="300" y="370" as="sourcePoint"/>
                        <mxPoint x="390" y="280" as="targetPoint"/>
                    </mxGeometry>
                </mxCell>
                <mxCell id="8" value="タイマーカウントを停止させる" style="ellipse;shape=umlControl;whiteSpace=wrap;html=1;fontColor=#000000;strokeColor=#030303;fillColor=#F7F7F7;" vertex="1" parent="1">
                    <mxGeometry x="520" y="370" width="70" height="80" as="geometry"/>
                </mxCell>
                <mxCell id="9" value="" style="html=1;verticalAlign=bottom;endArrow=block;labelBackgroundColor=#FFFFFF;fontColor=#000000;strokeColor=#000000;exitX=0.545;exitY=0.99;exitDx=0;exitDy=0;exitPerimeter=0;" edge="1" parent="1" source="15">
                    <mxGeometry width="80" relative="1" as="geometry">
                        <mxPoint x="580" y="280" as="sourcePoint"/>
                        <mxPoint x="558" y="360" as="targetPoint"/>
                    </mxGeometry>
                </mxCell>
                <mxCell id="10" value="" style="html=1;verticalAlign=bottom;endArrow=block;labelBackgroundColor=#FFFFFF;fontColor=#000000;strokeColor=#000000;exitX=0;exitY=0.625;exitDx=0;exitDy=0;exitPerimeter=0;" edge="1" parent="1" source="8">
                    <mxGeometry width="80" relative="1" as="geometry">
                        <mxPoint x="280" y="430" as="sourcePoint"/>
                        <mxPoint x="450" y="420" as="targetPoint"/>
                    </mxGeometry>
                </mxCell>
                <mxCell id="11" value="ルーム画面を表示する" style="ellipse;shape=umlControl;whiteSpace=wrap;html=1;fontColor=#000000;strokeColor=#030303;fillColor=#F7F7F7;" vertex="1" parent="1">
                    <mxGeometry x="379" y="370" width="70" height="80" as="geometry"/>
                </mxCell>
                <mxCell id="12" value="" style="html=1;verticalAlign=bottom;endArrow=block;labelBackgroundColor=#FFFFFF;fontColor=#000000;strokeColor=#000000;exitX=-0.029;exitY=0.6;exitDx=0;exitDy=0;exitPerimeter=0;entryX=0.61;entryY=1;entryDx=0;entryDy=0;entryPerimeter=0;" edge="1" parent="1" source="11" target="2">
                    <mxGeometry width="80" relative="1" as="geometry">
                        <mxPoint x="360" y="330" as="sourcePoint"/>
                        <mxPoint x="440" y="330" as="targetPoint"/>
                    </mxGeometry>
                </mxCell>
                <mxCell id="13" value="&lt;font color=&quot;#ff0000&quot;&gt;　タイマーが動作&lt;br&gt;していない&lt;/font&gt;" style="html=1;verticalAlign=bottom;endArrow=block;labelBackgroundColor=#FFFFFF;fontColor=#000000;strokeColor=#000000;" edge="1" parent="1">
                    <mxGeometry x="-0.29" width="80" relative="1" as="geometry">
                        <mxPoint x="560" y="220" as="sourcePoint"/>
                        <mxPoint x="560" y="150" as="targetPoint"/>
                        <mxPoint as="offset"/>
                    </mxGeometry>
                </mxCell>
                <mxCell id="14" value="&lt;font color=&quot;#000000&quot;&gt;ルーム画面を表示する&lt;/font&gt;" style="ellipse;shape=umlControl;whiteSpace=wrap;html=1;strokeColor=#3A5431;fillColor=#C9BEB0;fontColor=#ffffff;" vertex="1" parent="1">
                    <mxGeometry x="520" y="60" width="70" height="80" as="geometry"/>
                </mxCell>
                <mxCell id="15" value="タイマーが動いているか確認" style="ellipse;shape=umlControl;whiteSpace=wrap;html=1;fontColor=#000000;strokeColor=#030303;fillColor=#FFFFFF;" vertex="1" parent="1">
                    <mxGeometry x="520" y="230" width="70" height="80" as="geometry"/>
                </mxCell>
                <mxCell id="16" value="" style="html=1;verticalAlign=bottom;endArrow=block;labelBackgroundColor=#FFFFFF;fontColor=#000000;strokeColor=#000000;exitX=-0.014;exitY=0.667;exitDx=0;exitDy=0;exitPerimeter=0;entryX=0.607;entryY=-0.021;entryDx=0;entryDy=0;entryPerimeter=0;" edge="1" parent="1" source="14" target="2">
                    <mxGeometry width="80" relative="1" as="geometry">
                        <mxPoint x="380" y="170" as="sourcePoint"/>
                        <mxPoint x="460" y="170" as="targetPoint"/>
                    </mxGeometry>
                </mxCell>
                <mxCell id="17" value="" style="html=1;verticalAlign=bottom;endArrow=block;labelBackgroundColor=#FFFFFF;fontColor=#000000;strokeColor=#000000;" edge="1" parent="1">
                    <mxGeometry width="80" relative="1" as="geometry">
                        <mxPoint x="450" y="280" as="sourcePoint"/>
                        <mxPoint x="510" y="280" as="targetPoint"/>
                    </mxGeometry>
                </mxCell>
                <mxCell id="19" value="&lt;font color=&quot;#000000&quot;&gt;タイマー&lt;/font&gt;" style="ellipse;shape=umlEntity;whiteSpace=wrap;html=1;strokeColor=#A50040;fillColor=#FF66B3;fontColor=#ffffff;" vertex="1" parent="1">
                    <mxGeometry x="670" y="240" width="80" height="80" as="geometry"/>
                </mxCell>
                <mxCell id="20" value="" style="endArrow=none;html=1;labelBackgroundColor=#FFFFFF;fontColor=#000000;strokeColor=#000000;entryX=0;entryY=0.5;entryDx=0;entryDy=0;exitX=1.029;exitY=0.609;exitDx=0;exitDy=0;exitPerimeter=0;" edge="1" parent="1" source="15" target="19">
                    <mxGeometry width="50" height="50" relative="1" as="geometry">
                        <mxPoint x="480" y="400" as="sourcePoint"/>
                        <mxPoint x="530" y="350" as="targetPoint"/>
                    </mxGeometry>
                </mxCell>
            </root>
        </mxGraphModel>
    </diagram>
</mxfile>